<?xml version="1.0" encoding="UTF-8" standalone="no"?>
<svg
   xml:space="preserve"
   width="512"
   height="512"
   version="1.1"
   id="svg6"
   sodipodi:docname="asteroid-touchdown.svg"
   inkscape:version="1.4.3 (0d15f75042, 2025-12-25)"
   xmlns:inkscape="http://www.inkscape.org/namespaces/inkscape"
   xmlns:sodipodi="http://sodipodi.sourceforge.net/DTD/sodipodi-0.dtd"
   xmlns="http://www.w3.org/2000/svg"
   xmlns:svg="http://www.w3.org/2000/svg"><defs
     id="defs6" /><sodipodi:namedview
     id="namedview6"
     pagecolor="#ffffff"
     bordercolor="#000000"
     borderopacity="0.25"
     inkscape:showpageshadow="2"
     inkscape:pageopacity="0.0"
     inkscape:pagecheckerboard="0"
     inkscape:deskcolor="#d1d1d1"
     inkscape:zoom="1.1435242"
     inkscape:cx="335.36674"
     inkscape:cy="352.85653"
     inkscape:window-width="1920"
     inkscape:window-height="1080"
     inkscape:window-x="0"
     inkscape:window-y="0"
     inkscape:window-maximized="1"
     inkscape:current-layer="svg6"
     showguides="true"><sodipodi:guide
       position="253.60197,502.38061"
       orientation="1,0"
       id="guide9"
       inkscape:locked="false" /></sodipodi:namedview><path
     fill="none"
     d="m 257.31315,73.300556 100.376,100.803004 a 5.015,5.015 0 0 1 0,7.09 l -100.376,100.803 a 4.967,4.967 0 0 1 -7.062,0 l -100.377,-100.803 a 5.015,5.015 0 0 1 0,-7.09 l 100.377,-100.803004 c 1.944,-1.964 7.062,0 7.062,0 v 0"
     style="color:#000000;clip-rule:nonzero;display:inline;overflow:visible;visibility:visible;opacity:1;isolation:auto;mix-blend-mode:normal;color-interpolation:sRGB;color-interpolation-filters:linearRGB;solid-color:#000000;solid-opacity:1;fill:#edcf72;fill-opacity:0;fill-rule:evenodd;stroke:#000000;stroke-width:16;stroke-linecap:round;stroke-linejoin:miter;stroke-miterlimit:4;stroke-dasharray:none;stroke-dashoffset:0;stroke-opacity:1;color-rendering:auto;image-rendering:auto;shape-rendering:auto;text-rendering:auto"
     id="path3"
     inkscape:transform-center-x="2.7972046"
     inkscape:transform-center-y="-2.3961013" /><path
     d="m 254.24615,241.09656 62.932,-62.931 -41.955,-41.953 -20.977,20.976 -20.977,-20.976 -20.976,20.976 20.976,20.977 20.977,-20.977 20.977,20.977 -41.954,41.953 z"
     style="fill:none;stroke:#000000;stroke-width:16;stroke-linejoin:round;stroke-miterlimit:1.1;stroke-dasharray:none;stroke-opacity:1"
     id="path4"
     inkscape:transform-center-x="-8.1567954"
     inkscape:transform-center-y="8.3094939" /><path
     d="M 376.24059,294.76829 310.62147,229.14917"
     style="fill:#00ff00;stroke:#000000;stroke-width:16;stroke-linecap:round;stroke-linejoin:round;stroke-miterlimit:1.1"
     id="path7"
     sodipodi:nodetypes="cc"
     inkscape:transform-center-x="-86.852175"
     inkscape:transform-center-y="81.613664" /><path
     d="m 126.60422,294.76829 65.61912,-65.61912"
     style="fill:#00ff00;stroke:#000000;stroke-width:16;stroke-linecap:round;stroke-linejoin:round;stroke-miterlimit:1.1"
     id="path8"
     sodipodi:nodetypes="cc"
     inkscape:transform-center-x="97.165075"
     inkscape:transform-center-y="81.613664" /><path
     d="m 269.12017,464.03809 c -10.77192,-56.41636 40.53093,-55.28468 40.19562,-112.07827 -0.2934,-46.52464 -44.0098,-62.28434 -53.69195,-62.28434 -9.72407,0 -47.74015,10.1013 -53.18898,62.28434 -4.48481,42.50088 30.3458,87.1813 66.68531,112.07827 z M 255.62384,292.77712 c 0,0 17.05903,13.95739 17.05903,31.14217 0,17.18478 -17.01712,31.14217 -17.01712,31.14217 0,0 -16.89138,-13.95739 -16.89138,-31.14217 0,-17.18478 16.84947,-31.14217 16.84947,-31.14217 z"
     id="path1"
     style="opacity:0.6;stroke-width:0.419141"
     inkscape:transform-center-x="0.898219"
     inkscape:transform-center-y="196.51172" /><path
     d="m 372.48978,50.227408 c -16.04749,25.510453 -35.33655,6.722787 -55.52535,28.644424 -16.53124,17.964642 -5.3875,39.653648 -1.67076,43.117368 3.73283,3.47872 21.93996,13.20107 42.69976,-4.88146 16.926,-14.71064 19.53949,-44.322779 14.49635,-66.880332 z m -56.08652,70.571152 c 0,0 -1.55539,-11.46066 4.59235,-18.05748 6.14774,-6.596816 17.67336,-5.866956 17.67336,-5.866956 0,0 1.49103,11.400666 -4.65671,17.997486 -6.14774,6.59683 -17.609,5.92695 -17.609,5.92695 z"
     id="path9"
     style="opacity:0.3;stroke-width:0.219936"
     inkscape:transform-center-x="-84.895024"
     inkscape:transform-center-y="-91.366115" /></svg>
