<svg xmlns="http://www.w3.org/2000/svg" xml:space="preserve" width="512" height="512"><defs><path id="a" d="M0 0h2v2H0z"/></defs><g style="shape-rendering:crispEdges" transform="rotate(45 102.458 318.22)scale(33.3886)"><use href="#a" style="fill:#be3729"/><use id="b" x="2" href="#a" style="fill:#dc2919"/><use id="c" x="4" href="#a" style="fill:#e54b3a"/><use id="e" x="6" href="#a" style="fill:#e56934"/><use id="d" x="8" href="#a" style="fill:#e57c21"/></g><path d="M315.53 416.794c25.523 9.782 51.327 19.566 71.414 26.939 10.046 3.684 18.643 6.765 25.18 8.976 3.268 1.107 6.003 1.993 8.3 2.665.33.095.684.047.794.293l15.898 26.593h-29.552v8.875s1.242 9.85 16.003 15.95 58.692 6.3 73.239 0c14.546-6.298 14.963-15.95 14.963-15.95v-8.875h-42.577L384.73 326.348l-30.11 4.413 59.085 105.381c-2.605-.94-5.043-1.817-7.913-2.87-19.838-7.278-45.574-17.035-71.026-26.79-23.29-8.928-50.106-1.52-19.235 10.312" style="fill:#e6e6e6;stroke:none"/><path d="M-511.562 481.953h103.846v9.619h-103.846z" style="opacity:1;fill:#fafafa;fill-opacity:1;stroke:none;stroke-width:56.1158" transform="scale(-1 1)"/><g style="shape-rendering:crispEdges" transform="rotate(45 55.24 204.225)scale(33.3886)"><use href="#b"/><use href="#c"/><use id="f" x="10" href="#a" style="fill:#e58a21"/></g><g style="shape-rendering:crispEdges" transform="rotate(45 8.02 90.229)scale(33.3886)"><use href="#c"/><use href="#d"/><use id="g" x="12" href="#a" style="fill:#f19a11"/></g><g style="shape-rendering:crispEdges" transform="rotate(45 -39.198 -23.767)scale(33.3886)"><use href="#e"/><use href="#d"/><use href="#f"/><use id="h" x="14" href="#a" style="fill:#f0ae0e"/></g><g style="shape-rendering:crispEdges" transform="rotate(45 -86.417 -137.763)scale(33.3886)"><use href="#d"/><use href="#f"/><use href="#g"/><use href="#h"/><use x="16" href="#a" style="fill:#f0c30e"/></g></svg>