<svg xmlns="http://www.w3.org/2000/svg" xml:space="preserve" width="512" height="512"><path fill="none" d="M269.781 53.921c-1.82 22.33-18.684 16.354-23.992 37.696-4.342 17.484 8.615 28.126 11.818 29.173 3.217 1.053 16.758 1.378 23.54-17.609 5.54-15.458-1.72-35.988-11.366-49.26zm-5.948 42.337s4.256 7.063 2.616 13.51c-1.64 6.446-8.545 9.86-8.545 9.86s-4.312-7.083-2.673-13.53 8.602-9.84 8.602-9.84zm-87.855 4.876s-6.233.643-7.2 3.65l-50.21 154.654a5.73 5.73 0 0 0 3.667 7.227l153.654 50.474c2.81.892 5.844-.574 6.75-3.26l51.443-154.653a5.73 5.73 0 0 0-3.666-7.228zm134.915 131.312 100.817 32.966ZM190.2 293.657l-32.97 100.817Zm118.381 24.991c-11.246-.545-20.366 1.324-23.836 3-9.293 4.488-40.727 31.23-20.642 81.237 16.313 40.752 71.256 65.339 118.052 71.225-37.639-46.374 11.94-69.024-15.908-120.558-14.269-26.38-38.923-33.995-57.666-34.904Zm-22.331 5.822s23.068 4.829 31.397 20.47c8.33 15.64-1.17 36.196-1.17 36.196s-22.907-4.904-31.236-20.545c-8.33-15.64 1.009-36.121 1.009-36.121z" style="color:#000;clip-rule:nonzero;display:inline;overflow:visible;visibility:visible;opacity:1;isolation:auto;mix-blend-mode:normal;color-interpolation:sRGB;color-interpolation-filters:linearRGB;solid-color:#000;solid-opacity:1;fill:#edcf72;fill-opacity:0;fill-rule:evenodd;stroke:#000;stroke-width:16;stroke-linecap:round;stroke-linejoin:miter;stroke-miterlimit:4;stroke-dasharray:none;stroke-dashoffset:0;stroke-opacity:1;color-rendering:auto;image-rendering:auto;shape-rendering:auto;text-rendering:auto"/><path d="m226.762 156.007-10.54 32.228 32.228 10.539-21.079 64.457 32.23 10.54 31.618-96.687zm-10.54 32.228-32.23-10.538-10.539 32.228 32.23 10.54z" style="fill:none;stroke:#000;stroke-width:16;stroke-linejoin:round;stroke-miterlimit:1.1;stroke-dasharray:none;stroke-opacity:1"/></svg>